<?xml version="1.0" encoding="UTF-8"?>
<!DOCTYPE svg PUBLIC "-//W3C//DTD SVG 1.1//EN" "http://www.w3.org/Graphics/SVG/1.1/DTD/svg11.dtd">
<svg version="1.1" xmlns="http://www.w3.org/2000/svg" xmlns:xlink="http://www.w3.org/1999/xlink" x="0" y="0" width="796" height="890" viewBox="0, 0, 796, 890">
  <defs>
    <clipPath id="Clip_1">
      <path d="M0.06,0.568 L795.02,0.568 L795.02,890 L0.06,890 z"/>
    </clipPath>
  </defs>
  <g id="Layer_1">
    <g clip-path="url(#Clip_1)">
      <path d="M627,651.709 C607.939,653.713 588.877,655.71 569.818,657.734 C567.528,657.977 565.253,658.37 562.971,658.694 C560.823,658.957 560.124,657.191 559.313,655.857 C556.024,650.443 552.373,645.281 548.746,640.094 C545.49,635.439 545.925,634.227 551.478,632.359 C569.071,626.44 585.885,618.823 601.645,609.024 C634.341,588.694 659.596,561.374 677.674,527.394 C684.499,514.567 690.151,501.237 694.455,487.371 C695.813,482.998 698.159,481.269 702.753,481.35 C728.917,481.809 745.789,463.591 747.509,437.525 C748.23,426.595 748.374,415.538 744.182,404.982 C739.192,392.418 730.644,384.705 716.663,383.864 C708.695,383.385 708.915,383.265 708.615,375.481 C707.964,358.606 704.531,342.136 700.821,325.731 C697.179,309.624 692.227,293.907 686.329,278.486 C684.387,273.408 684,273.231 678.559,274.44 C675.46,275.129 672.451,276.068 669.518,277.283 C663.073,277.83 656.721,279.112 650.275,279.655 C648.29,279.822 646.334,280.294 644.409,279.421 C644.12,279.252 643.713,279.065 643.671,278.792 C642.413,270.737 636.46,269.757 629.8,268.88 C614.273,266.834 600.834,259.682 589.453,249.33 C558.542,221.217 542.082,185.609 536.69,144.539 C536.538,143.383 536.479,142.215 536.134,141.092 C535.044,137.547 532.562,135.88 528.956,136.272 C525.491,136.649 523.642,138.923 523.387,142.314 C522.854,149.394 524.485,156.273 525.981,163.074 C532.533,192.85 544.973,219.873 564.599,243.368 C573.733,254.301 584.126,263.842 596.485,271.135 C598.326,272.221 601.491,272.665 600.671,276.16 C598.515,277.188 596.396,276.356 594.334,275.899 C576.456,271.942 558.866,266.976 542.255,259.171 C536.808,256.611 531.134,256.074 525.433,255.119 C517.926,253.862 510.268,253.288 503.121,250.34 C501.107,243.228 495.66,241.733 489.101,240.911 C473.209,238.92 459.563,231.53 447.969,220.889 C417.349,192.789 401.039,157.327 395.695,116.478 C395.344,113.795 395.059,111.129 392.65,109.384 C388.815,106.606 383.332,108.516 382.651,113.449 C381.957,118.471 379.06,119.966 374.824,120.955 C355.601,125.444 337.185,132.349 319.566,141.107 C299.37,151.145 280.858,163.756 264.026,178.935 C239.176,201.344 219.961,227.873 205.54,257.848 C190.561,288.983 181.471,321.991 176.371,356.117 C175.24,363.682 173.94,371.235 174.265,378.947 C174.399,382.142 173.038,383.803 169.461,383.671 C154.686,383.123 144.366,389.827 138.204,403.205 C137.533,404.661 137.443,407.03 134.8,406.725 C132.867,399.78 132.857,392.545 132.91,385.527 C133.009,372.576 133.757,359.611 134.515,346.657 C135.705,326.312 138.583,306.227 142.697,286.325 C154.221,230.58 175.737,179.15 209.939,133.375 C227.88,109.364 248.545,87.983 272.709,70.111 C274.117,69.367 274.937,68.026 275.947,66.875 C282.917,61.511 291.285,58.967 299.18,55.511 C310.936,50.365 323.032,46.106 335.446,42.808 C338.45,42.01 341.108,40.741 342.763,38.008 C344.53,35.09 347.249,33.774 350.369,32.784 C375.69,24.746 401.55,19.152 427.984,16.695 C452.883,14.38 477.814,14.777 502.698,17.656 C548.805,22.991 591.317,38.777 630.94,62.413 C662.262,81.097 689.317,104.848 711.344,134.085 C712.769,135.976 715.072,137.64 714.244,140.599 C711.305,141.644 710.232,138.981 708.535,137.649 C707.102,136.525 705.99,135.026 704.364,133.617 C704.403,153.364 701.039,171.883 687.406,187.036 C673.924,202.023 656.13,207.491 636.234,209.619 C660.829,219.243 684.505,216.55 707.882,207.676 C719.254,203.359 730.053,197.752 740.187,190.952 C741.151,190.305 742.058,189.543 743.296,189.458 C746.013,190.787 746.459,193.644 747.485,196.001 C761.606,228.461 770.385,262.411 775.336,297.383 C777.483,312.544 778.576,327.8 779.557,343.096 C780.626,359.761 780.609,376.409 780.195,393.028 C779.276,429.9 776.097,466.483 763.342,501.6 C749.219,540.484 730.31,576.577 702.428,607.475 C689.916,621.34 675.375,632.651 658.069,640.09 C652.83,642.342 647.385,643.945 641.682,644.298 C635.667,644.67 630.243,645.962 627,651.709" fill="#C6986A"/>
      <path d="M135.222,406.812 C139.549,395.618 146.009,386.555 158.482,383.476 C162.032,382.6 165.662,381.886 169.268,382.446 C172.415,382.935 172.823,381.647 172.991,378.967 C175.777,334.423 187.036,292.054 207.005,252.195 C231.712,202.879 268.646,165.382 318.017,140.474 C336.791,131.001 356.495,123.893 376.957,118.993 C379.575,118.366 380.983,117.691 381.007,114.583 C381.043,109.765 383.949,106.925 388.2,106.708 C392.971,106.463 396.326,109.229 396.809,114.458 C397.392,120.767 398.452,126.968 399.802,133.144 C406.532,163.938 420.413,191.137 442.14,213.899 C456.245,228.677 473.41,238.557 494.349,240.619 C500.883,241.263 502.465,243.195 503.041,249.779 C503.079,254.989 498.882,258.516 492.583,257.859 C485.301,257.1 478.095,255.784 471.148,253.247 C443.202,243.042 423.785,222.949 408.171,198.63 C396.84,180.981 388.789,161.84 383.79,141.438 C382.391,135.73 382.018,135.542 376.218,137.082 C340.943,146.446 308.958,162.335 280.802,185.643 C258.599,204.023 241.055,226.273 227.123,251.431 C207.06,287.66 196.104,326.76 191.326,367.644 C189.081,386.851 189.909,406.166 191.952,425.419 C192.602,431.55 193.726,437.601 194.402,443.72 C198.476,466.819 204.939,489.181 214.959,510.446 C218.728,518.819 223.449,526.663 228.153,534.528 C230.243,538.021 232.519,539.2 236.741,538.079 C249.939,534.576 263.094,530.919 276.277,527.365 C278.207,526.844 280.115,526.236 282.08,525.865 C288.995,524.556 292.926,526.675 295.389,533.193 C300.213,545.967 304.723,558.858 309.231,571.744 C313.409,583.69 317.913,595.521 321.848,607.55 C322.98,611.009 325.087,613.079 328.512,614.342 C351.779,622.922 375.849,627.687 400.44,630.501 C419.705,632.705 439.022,633.013 458.279,632.2 C502.821,630.322 545.922,621.969 585.385,599.929 C623.12,578.853 650.486,548.127 668.751,509.114 C677.991,489.018 684.123,467.965 688.101,446.246 C692.596,422.21 693.732,397.884 692.223,373.615 C690.794,350.635 685.517,328.168 678.691,306.152 C676.176,298.043 673.537,289.963 670.401,282.059 C669.743,280.402 668.757,278.703 669.798,276.817 C673.838,272.89 679.318,273.107 684.284,271.996 C685.466,271.731 685.975,273.855 686.45,275.063 C695.966,299.286 702.821,324.242 706.954,349.938 C708.538,359.785 710.283,369.619 710.079,379.657 C710.048,381.225 710.057,382.619 712.425,382.444 C730.736,381.087 743.625,392.943 747.427,411.242 C750.302,425.073 750.255,439.043 745.841,452.678 C739.923,470.959 724.104,482.842 704.918,482.637 C698.784,482.571 696.619,484.6 694.759,490.254 C682.635,527.11 663.143,559.425 634.407,585.884 C610.36,608.025 582.412,623.371 551.553,633.591 C547.274,635.008 547.479,636.235 549.772,639.383 C554.362,645.682 558.592,652.242 562.971,658.694 C573.352,676.076 583.923,693.348 592.952,711.499 C605.941,737.61 617.474,764.256 621.472,793.455 C624.096,812.626 623.45,831.561 611.567,847.961 C598.919,865.418 581.226,873.18 559.748,872.289 C552.254,871.978 544.809,871.006 537.677,868.651 C534.418,867.575 533.763,868.776 533.47,871.566 C533.142,874.701 532.561,877.814 531.988,880.918 C531.304,884.627 531.192,888.892 526.209,889.628 C519.171,890.668 517.985,889.859 515.053,882.883 C513.674,877.812 515.817,873.058 516.505,868.195 C516.996,864.721 516.238,862.577 512.912,861.019 C493.633,851.992 476.35,839.853 459.782,826.619 C456.042,823.631 455.732,823.715 453.902,828.015 C452.597,831.079 451.529,834.243 450.237,837.31 C448.539,841.341 445.488,843.747 441.016,843.791 C436.442,843.835 433.533,841.288 432.048,837.137 C429.464,829.921 426.202,822.964 423.812,815.683 C422.443,811.516 420.189,808.344 416.154,806.354 C402.867,799.799 395.278,789.163 393.668,774.367 C393.411,772.01 392.295,770.269 390.067,769.389 C386.535,767.993 382.949,766.755 378.608,765.677 C380.485,771.772 382.339,777.224 384.404,782.607 C385.956,786.653 387.41,790.739 388.559,794.912 C390.596,802.31 388.329,806.421 380.974,808.482 C374.079,810.414 367.118,812.121 360.136,813.712 C356.79,814.474 355.495,815.9 355.947,819.596 C358.273,838.603 361.122,857.532 364,876.459 C364.309,878.49 365.59,880.623 363.876,882.644 C361.82,889.393 360.657,890.129 353.532,889.686 C348.252,889.357 347.873,885.219 347.22,881.528 C345.889,874.009 344.831,866.443 343.672,858.965 C342.422,858.257 341.665,859.161 340.931,859.72 C311.426,882.165 284.324,871.594 263.477,852.696 C261.135,850.572 258.798,848.389 256.791,845.96 C253.456,841.923 250.577,838.425 244.115,840.591 C239.755,842.052 236.498,838.454 235.501,834.177 C234.046,827.935 230.984,825.256 224.123,824.824 C207.073,823.749 194.363,814.279 184.008,801.357 C169.427,783.162 160.509,762.743 161.115,739.04 C161.497,724.129 167.118,711.447 179.781,702.797 C182.745,700.773 183.119,699.271 181.867,696.078 C166.648,657.276 151.578,618.416 136.467,579.572 C133.453,571.822 133.881,570.201 140.784,565.704 C143.427,563.983 140.997,562.793 140.426,561.806 C131.588,546.517 124.116,530.596 117.996,514.038 C101.926,470.558 94.314,425.485 92.929,379.288 C91.394,328.051 97.966,277.979 116.031,229.806 C148.793,142.44 207.154,79.28 293.06,41.497 C307.845,34.994 322.096,27.099 337.43,21.771 C375.892,8.408 415.423,0.991 456.237,0.588 C546.477,-0.304 625.314,29.157 691.72,90.245 C732.618,127.868 758.563,175.094 774.914,227.807 C788.573,271.841 794.431,317.068 794.95,363.063 C795.266,391.052 794.592,419.004 791.202,446.825 C787.039,480.989 776.353,513.204 761.606,544.137 C747.551,573.618 730.092,600.851 706.785,623.964 C691.494,639.128 674.399,651.633 653.093,657.093 C648.444,658.284 643.63,659.006 638.846,659.458 C631.609,660.141 629.421,658.528 627,651.708 C629.176,644.787 630.043,644.204 637.542,643.57 C656.624,641.957 672.329,632.885 686.429,620.735 C716.882,594.491 736.785,560.849 752.792,524.621 C763.179,501.111 770.71,476.665 774.494,451.213 C776.177,439.893 777.102,428.432 777.808,417.001 C779.143,395.399 779.596,373.746 778.782,352.124 C777.112,307.76 770.698,264.163 756.111,222.028 C752.312,211.055 748.088,200.246 743.144,189.73 C741.567,189.481 741.162,188.147 740.58,186.972 C733.223,172.128 725.212,157.667 715.519,144.19 C714.748,143.118 713.982,142.013 714.104,140.576 C707.289,129.669 698.786,120.127 689.85,110.974 C643.64,63.639 587.26,35.181 522.906,22.067 C495.916,16.567 468.426,15.391 440.961,16.99 C409.658,18.813 379.064,24.866 349.228,34.618 C346.934,35.368 345.02,36.13 344.039,38.673 C342.863,41.72 340.102,42.965 337.071,43.755 C317.364,48.893 298.707,56.829 280.234,65.236 C278.749,65.912 277.424,66.938 276.025,67.802 C275.21,69.184 273.831,69.856 272.508,70.603 C255.401,80.968 238.529,91.653 223.165,104.564 C195.443,127.861 172.862,155.385 154.992,186.833 C131.597,228.002 118.284,272.431 112.729,319.249 C109.782,344.083 109.601,369.031 111.175,394.02 C112.76,419.192 116.436,444.002 122.256,468.527 C129.307,498.233 140.284,526.372 155.573,552.807 C159.239,559.144 159.323,559.092 166.497,557.224 C167.786,556.888 169.063,556.5 170.381,556.293 C182.052,553 193.737,549.753 205.485,546.735 C212.234,545.001 212.295,544.98 208.913,539.195 C199.654,523.356 192.09,506.742 186.43,489.303 C185.109,485.234 182.962,483.874 178.831,483.963 C163.208,484.3 150.325,478.64 140.878,465.873 C132.269,453.072 130.138,438.703 131.004,423.728 C131.231,419.806 131.641,415.816 132.648,411.957 C133.143,410.06 133.297,407.993 135.222,406.812" fill="#6E4100"/>
      <path d="M363.876,882.644 C360.145,862.884 357.477,842.962 355.059,823.012 C353.952,813.878 354.263,813.849 363.509,811.595 C369.159,810.218 374.816,808.865 380.444,807.4 C387.592,805.54 389.631,801.836 387.233,794.798 C384.284,786.143 381.153,777.55 378.108,768.927 C377.561,767.379 377.048,765.819 376.118,763.087 C382.327,765.317 387.711,767.175 393.029,769.206 C394.591,769.803 394.841,771.412 394.966,772.986 C396.115,787.403 402.823,798.281 415.948,804.634 C421.018,807.087 423.659,810.796 425.345,815.982 C427.603,822.929 430.551,829.651 433.152,836.489 C434.584,840.253 436.945,842.757 441.243,842.654 C445.45,842.554 447.869,840.199 449.237,836.339 C450.681,832.267 452.435,828.305 453.929,824.249 C454.725,822.089 455.483,821.108 457.722,822.992 C475.753,838.165 495.068,851.385 516.541,861.275 C517.878,861.89 518.704,862.559 518.376,864.28 C517.199,870.467 516.149,876.678 515.052,882.882 C509.071,882.812 503.089,882.683 497.107,882.679 C452.697,882.653 408.286,882.653 363.876,882.644" fill="#4576AD"/>
      <path d="M59.94,583.865 C56.508,583.74 52.394,581.742 48.138,580.433 C34.952,576.377 21.846,572.062 8.718,567.822 C1.881,565.614 -1.344,560.428 0.523,554.749 C2.444,548.909 7.911,546.566 14.736,548.739 C31.047,553.932 47.367,559.102 63.642,564.407 C68.894,566.118 71.599,570.598 70.821,575.524 C70.045,580.434 66.16,583.758 59.94,583.865" fill="#FF7164"/>
    </g>
    <path d="M57.023,631.731 C62.878,631.67 67.327,635.56 67.905,640.7 C68.482,645.84 65.022,650.657 59.772,651.594 C54.368,652.557 48.895,652.979 43.392,652.85 C35.399,652.663 27.458,653.164 19.546,654.385 C13.507,655.316 8.536,651.818 7.754,646.367 C6.874,640.225 10.149,635.604 16.431,634.669 C21.845,633.863 27.308,633.23 32.772,632.936 C41.057,632.489 49.412,633.463 57.023,631.731" fill="#FF7164"/>
    <path d="M84.8,518.086 C82.393,518.01 80.268,517.303 78.399,515.687 C69.078,507.628 59.676,499.663 50.385,491.569 C45.485,487.3 44.83,481.443 48.515,476.966 C52.023,472.703 58.33,472.315 63.255,476.244 C73.02,484.034 82.456,492.212 91.616,500.705 C95.014,503.856 96.05,507.686 94.229,512.035 C92.5,516.167 89.252,518.111 84.8,518.086" fill="#FF7164"/>
    <path d="M669.758,509.736 C647.096,559.116 610.127,593.417 559.885,613.538 C526.461,626.923 491.439,632.495 455.643,633.771 C416.483,635.168 378.043,631.04 340.259,620.035 C327.699,616.377 320.342,610.547 316.551,597.354 C310.374,575.862 301.819,555.053 294.241,533.965 C291.72,526.951 288.872,525.469 281.703,527.405 C265.836,531.69 249.973,535.994 234.119,540.328 C232.248,540.839 230.755,541.16 229.441,539.061 C223.716,529.912 217.829,520.865 213.901,510.734 C215.71,509.841 217.092,511.039 218.547,511.729 C230.649,517.467 243.317,520.439 256.758,519.372 C264.363,518.768 271.713,516.665 277.639,511.907 C291.678,500.639 303.245,487.588 305.233,468.527 C306.053,460.664 303.813,453.359 301.235,446.164 C296.103,431.84 287.966,419.536 274.675,411.674 C250.62,397.443 223.228,406.966 207.199,426.404 C203.278,431.158 200.01,436.372 197.211,441.897 C196.589,443.124 196.081,446.608 193.176,443.776 C182.619,387.588 190.852,333.477 211.675,280.907 C229.731,235.322 258.292,197.86 299.151,170.21 C323.795,153.533 350.779,142.179 379.527,134.785 C382.705,133.968 383.602,134.668 384.368,137.939 C391.992,170.459 406.42,199.556 429.493,223.906 C446.453,241.804 466.693,253.919 491.856,256.338 C498.185,256.947 500.396,255.753 503.041,249.78 C513.801,251.701 524.641,253.223 535.383,255.111 C542.547,256.37 549.119,260.756 556.098,263.363 C570.708,268.821 585.613,273.274 601.115,275.457 C603.59,274.414 605.687,275.775 607.763,276.67 C613.918,279.324 620.356,280.864 626.872,282.339 C633.294,283.793 638.991,283.406 643.906,278.637 C650.829,277.86 657.761,277.144 664.671,276.265 C666.481,276.035 668.229,275.268 669.799,276.817 C681.926,306.311 689.985,336.927 693.275,368.599 C695.997,394.803 694.435,420.98 689.122,446.859 C686.19,446.802 686.077,444.21 685.289,442.393 C680.995,432.492 675.475,423.421 667.051,416.506 C648.582,401.348 623.513,400.98 603.81,415.888 C589.731,426.54 581.252,440.88 577.345,458.144 C572.661,478.839 584.356,500.778 601.517,510.342 C614.648,517.66 628.901,520.593 643.897,519.178 C651.334,518.476 658.045,515.591 664.097,511.175 C665.749,509.97 667.293,507.92 669.758,509.736" fill="#FEF8EA"/>
    <path d="M135.222,406.812 C131.804,421.175 131.322,435.545 135.003,449.952 C136.452,455.621 139.263,460.653 142.064,465.701 C144.247,470.243 144.906,475.215 145.943,480.053 C151.248,504.808 159.366,528.602 169.908,551.599 C170.745,553.426 172.579,555.216 170.912,557.523 C166.899,558.464 162.188,561.149 159.052,559.895 C155.313,558.399 153.955,552.873 151.772,548.978 C131.761,513.282 120.435,474.71 114.067,434.52 C108.703,400.666 107.158,366.611 110.107,332.475 C117.139,251.087 145.728,179.064 203.962,120.332 C224.229,99.891 247.16,82.863 272.81,69.629 C273.933,69.155 274.1,69.729 273.942,70.66 C235.036,100.327 204.646,137.175 181.815,180.321 C159.164,223.128 145.463,268.766 138.924,316.68 C135.788,339.654 134.622,362.732 134.445,385.877 C134.391,392.853 134.946,399.834 135.222,406.812" fill="#FEFEFE"/>
    <path d="M714.104,140.576 C726.033,155.631 734.944,172.469 743.143,189.729 C742.848,190.978 741.892,191.661 740.899,192.283 C719.043,205.972 696.058,216.445 669.662,217.039 C657.074,217.323 644.921,215.549 632.475,208.706 C653.878,206.576 672.86,201.729 686.825,185.673 C700.651,169.778 703.688,150.763 702.533,130.231 C707.085,132.937 709.716,137.788 714.104,140.576" fill="#FEFEFE"/>
    <path d="M643.906,278.637 C641.682,283.652 637.841,284.909 632.548,284.377 C621.5,283.267 611.209,279.776 601.115,275.457 C554.503,247.571 532.235,204.183 522.92,152.573 C522.361,149.477 522.022,146.311 521.939,143.168 C521.809,138.161 524.641,134.979 529.091,134.709 C533.864,134.42 537.293,137.168 537.777,142.361 C538.381,148.834 539.441,155.205 540.865,161.532 C547.424,190.683 560.3,216.62 580.388,238.837 C593.061,252.853 608.087,263.135 626.839,267.236 C629.591,267.838 632.409,268.143 635.202,268.55 C642.105,269.557 643.893,271.618 643.906,278.637" fill="#6E4100"/>
    <path d="M273.942,70.66 C273.565,70.317 273.187,69.973 272.81,69.629 C273.881,69.02 274.953,68.411 276.025,67.802 C276.207,69.393 275.371,70.242 273.942,70.66" fill="#EAE2D9"/>
    <path d="M239.886,555.564 C252.506,552.043 265.142,548.575 277.738,544.968 C281.124,543.998 281.609,546.186 282.427,548.485 C293.19,578.728 303.996,608.955 314.79,639.187 C332.461,688.682 350.129,738.178 367.805,787.67 C369.852,793.402 369.877,793.407 363.916,794.887 C326.974,804.057 290.036,813.242 253.069,822.314 C251.569,822.683 249.544,824.417 248.2,822.196 C247.068,820.324 248.921,819.106 249.954,817.946 C259.088,807.699 255.96,780.805 237.889,773.215 C236.408,772.593 234.954,771.909 233.082,771.072 C239.923,763.885 245.036,756.214 240.852,746.255 C236.849,736.725 228.147,734.937 218.506,734.533 C220.876,731.497 223.143,728.903 225.065,726.074 C230.51,718.057 230.471,709.738 225.354,701.701 C220.277,693.727 212.724,690.697 203.43,692.472 C199.624,693.199 197.306,692.892 195.814,688.391 C192.365,677.987 188.129,667.845 184.212,657.596 C186.425,649.991 191.042,643.567 194.793,636.765 C209.747,609.656 224.807,582.604 239.886,555.564" fill="#9D9D9D"/>
    <path d="M468.373,810.462 C493.878,796.837 502.743,774.597 503.089,746.799 C509.531,752.045 515.536,756.897 521.499,761.8 C534.873,772.797 548.223,783.821 561.587,794.829 C566.245,798.667 571.277,798.585 574.328,794.638 C577.261,790.844 576.336,786.031 571.926,782.419 C565.487,777.146 559.166,771.714 552.515,766.722 C548.779,763.919 546.99,760.816 548.065,756.189 C549.103,751.719 548.358,747.818 543.854,745.606 C539.742,743.587 536.413,745.064 533.788,748.461 C532.607,749.99 531.654,749.471 530.492,748.501 C524.357,743.382 518.258,738.217 512.01,733.24 C509.771,731.456 509.86,730.018 511.455,727.889 C517.357,720.017 520.657,711.047 522.613,701.453 C523.983,694.729 522.896,689.287 516.488,685.666 C513.161,683.785 510.047,681.524 506.69,679.705 C504.798,678.68 504.438,677.96 505.671,676.016 C511.414,666.961 514.02,656.882 514.881,646.29 C514.99,644.953 514.895,643.423 516.544,643.024 C520.902,641.969 525.28,640.986 529.677,640.111 C531.09,639.829 531.562,641.233 532.204,642.164 C558.892,680.938 583.277,720.952 598.507,765.863 C603.066,779.308 605.545,793.138 606.794,807.307 C608.763,829.655 594.23,851.156 573.245,855.323 C559.456,858.06 546.08,855.241 533.151,850.516 C509.55,841.89 489.12,827.917 469.839,812.109 C469.347,811.706 468.978,811.15 468.373,810.462" fill="#4576AD"/>
    <path d="M669.758,509.736 C668.813,509.965 667.611,509.899 666.961,510.466 C654.409,521.392 639.669,522.36 624.276,519.656 C611.83,517.469 599.996,513.323 590.977,504.062 C574.747,487.396 570.015,468.322 580.44,444.096 C588.56,425.228 601.678,411.186 622.123,405.574 C646.881,398.778 669.407,410.448 681.723,432.29 C684.396,437.03 686.666,441.996 689.122,446.858 C685.704,468.753 679.199,489.697 669.758,509.736" fill="#FFD5BA"/>
    <path d="M193.176,443.776 C196.489,444.739 195.99,441.527 196.669,440.185 C203.982,425.75 214.482,414.761 229.39,407.961 C247.601,399.654 269.997,403.562 284.418,417.465 C297.6,430.174 304.562,445.856 306.731,463.62 C307.635,471.027 305.557,478.632 301.915,485.23 C292.948,501.475 281.714,515.606 262.306,519.729 C246.396,523.11 231.348,519.441 217.006,512.325 C215.964,511.808 214.936,511.265 213.901,510.734 C204.727,492.78 199.237,473.597 195.025,453.995 C194.298,450.613 193.787,447.184 193.176,443.776" fill="#FFD5BA"/>
    <path d="M391.06,669.891 C426.899,674.428 458.386,687.425 478.386,719.345 C489.201,736.605 490.024,755.939 481.651,774.86 C472.429,795.698 452.495,803.547 431.649,794.654 C412.721,786.581 408.014,779.649 411.464,752.938 C412.081,748.166 413.645,743.507 416.283,739.399 C418.449,736.027 420.87,733.046 425.487,732.557 C430.561,732.02 433.241,728.799 432.974,724.275 C432.698,719.572 429.946,717.364 425.376,716.555 C409.09,713.672 394.169,707.453 380.9,697.511 C377.027,694.609 373.545,691.225 371.408,686.758 C368.357,680.382 370.93,674.25 377.594,671.94 C381.898,670.447 386.405,670.39 391.06,669.891" fill="#FEF8EA"/>
    <path d="M170.912,557.523 C167.368,549.137 163.692,540.804 160.306,532.355 C152.054,511.767 146.466,490.406 142.208,468.676 C142.02,467.712 142.106,466.694 142.064,465.702 C152.24,478.28 165.593,483.62 181.53,482.76 C184.839,482.581 186.123,483.892 187.063,486.871 C193.187,506.277 201.416,524.761 212.295,541.979 C214.395,545.302 213.34,545.992 210.262,546.81 C197.124,550.3 184.025,553.938 170.912,557.523" fill="#C6986A"/>
    <path d="M211.441,750.854 C215.417,750.909 219.417,750.235 223.372,751.143 C226.331,751.823 226.842,753.311 225.037,755.72 C221.763,760.09 217.399,763.122 212.601,765.486 C209.133,767.195 206.942,769.583 207.067,773.539 C207.193,777.542 209.675,779.867 213.213,781.178 C218.35,783.08 223.552,784.81 228.665,786.776 C236.116,789.64 239.824,796.21 238.853,804.146 C238.353,808.228 235.564,809.387 232.209,809.445 C223.725,809.594 215.505,808.088 208.712,802.712 C188.677,786.858 177.651,766.129 177.144,740.487 C176.764,721.269 190.532,711.996 205.996,708.026 C208.464,707.393 210.553,708.308 211.973,710.566 C213.381,712.804 213.363,715.045 211.751,717.053 C209.256,720.16 206.611,723.149 203.967,726.133 C200.537,730.003 197.242,733.95 195.563,738.96 C193.167,746.11 196.457,750.773 203.958,750.85 C206.452,750.876 208.947,750.854 211.441,750.854" fill="#FEF8EA"/>
    <path d="M268.803,834.943 C291.315,829.397 313.051,824.053 334.777,818.671 C336.806,818.169 338.196,818.062 338.437,820.818 C338.782,824.775 339.86,828.696 339.907,832.641 C339.952,836.482 338.616,840.297 335.802,843.02 C329.741,848.886 322.45,853.158 314.462,855.463 C306.213,857.843 298.066,855.72 290.383,852.005 C282.184,848.04 275.399,842.339 268.803,834.943" fill="#4576AD"/>
    <path d="M148.475,428.776 C148.774,420.752 149.313,414.317 152.072,408.304 C155.438,400.968 161.84,397.572 169.849,398.468 C172.18,398.729 172.874,399.46 172.917,401.784 C173.303,422.602 175.971,443.156 180.696,463.421 C181.48,466.786 180.196,466.932 177.579,466.92 C162.005,466.847 150.847,455.877 149.094,438.682 C148.708,434.889 148.613,431.065 148.475,428.776" fill="#FEF8EA"/>
    <path d="M329.722,633.272 C342.813,637.594 354.976,640.806 367.323,643.3 C367.962,643.429 368.72,643.592 369.149,644.017 C370.422,645.276 368.377,658.182 366.809,659.276 C353.298,668.707 350.239,683.005 358.85,697.19 C360.514,699.932 361.597,702.707 362.38,705.84 C364.915,715.982 369.25,725.338 376.728,732.855 C378.815,734.952 378.831,736.485 377.433,738.849 C375.425,742.245 373.785,745.859 371.506,750.323 C357.475,711.018 343.805,672.724 329.722,633.272" fill="#4576AD"/>
    <path d="M733.119,428.88 C733.283,435.93 732.545,442.861 729.94,449.462 C725.55,460.589 716.904,465.795 705.348,466.883 C702.492,467.153 701.623,466.486 702.359,463.314 C707.041,443.161 709.752,422.728 710.055,402.025 C710.099,399.017 711.308,398.351 713.846,398.316 C721.528,398.209 726.98,401.825 730.031,409.3 C732.59,415.572 733.232,422.174 733.119,428.88" fill="#FEF8EA"/>
    <path d="M239.886,555.564 C241.009,558.366 238.771,560.178 237.681,562.155 C224.872,585.391 212.021,608.605 198.972,631.707 C194.088,640.355 190.03,649.48 184.212,657.596 C182.448,653.007 180.683,648.417 178.918,643.828 C178.118,640.768 179.795,638.374 181.148,635.954 C194.282,612.465 207.347,588.939 220.326,565.364 C221.535,563.169 222.739,560.989 225.015,559.684 C229.972,558.31 234.929,556.937 239.886,555.564" fill="#BEBEBE"/>
    <path d="M225.015,559.684 C210.72,585.312 196.41,610.931 182.159,636.584 C180.88,638.888 179.99,641.408 178.918,643.828 C176.59,637.816 174.261,631.805 171.932,625.793 C176.242,614.975 182.805,605.341 188.189,595.087 C192.728,586.443 197.472,577.889 202.293,569.388 C203.278,567.652 204.118,565.84 205.969,564.817 C212.228,562.776 218.538,560.918 225.015,559.684" fill="#9D9D9D"/>
    <path d="M205.969,564.817 C195.311,584.457 184.663,604.102 173.966,623.721 C173.52,624.538 172.62,625.108 171.932,625.793 C170.248,621.489 168.564,617.184 166.88,612.879 C166.155,610.678 166.579,608.621 167.716,606.682 C174.263,595.524 180.043,583.939 186.604,572.788 C187.285,571.629 188.105,570.609 188.989,569.62 C194.443,567.291 200.23,566.14 205.969,564.817" fill="#BEBEBE"/>
    <path d="M188.989,569.62 C185.28,579.078 179.296,587.343 174.914,596.438 C172.266,601.933 167.917,606.602 166.881,612.879 C162.817,602.601 158.804,592.304 154.652,582.062 C153.767,579.878 154.038,578.614 156.403,578.033 C167.298,575.358 177.912,571.595 188.989,569.62" fill="#9D9D9D"/>
    <path d="M422.256,649.616 C435.813,650.501 448.689,650.119 461.844,649.644 C460.742,654.541 458.559,658.583 456.23,662.561 C455.728,663.419 455.175,664.467 454.098,664.436 C447.338,664.239 440.555,665.262 433.813,663.834 C426.275,662.237 424.993,655.864 422.256,649.616" fill="#FEF7E9"/>
    <path d="M474.136,685.589 C484.49,687.504 494.286,690.905 503.43,696.208 C505.963,697.678 506.921,699.215 506.038,702.191 C504.185,708.436 501.845,714.375 497.087,720.043 C491.143,706.732 482.662,695.856 472.042,686.643 C471.955,684.732 473.077,685.223 474.136,685.589" fill="#FF7163"/>
    <path d="M471.715,668.32 C474.502,662.426 477.053,656.665 478.604,650.55 C479.069,648.715 480.177,648.265 481.809,648.1 C486.443,647.631 491.074,647.112 495.697,646.539 C497.664,646.296 498.796,646.333 498.395,649.011 C497.293,656.356 495.228,663.262 490.775,669.335 C489.27,671.388 487.718,672.433 484.951,671.591 C480.699,670.296 476.315,669.432 471.715,668.32" fill="#FEFEFD"/>
    <path d="M408.264,655.583 C400.053,655.003 393.342,654.086 386.56,654.233 C383.815,654.292 385.192,651.775 385.197,650.405 C385.204,648.748 384.681,646.348 387.713,646.677 C392.999,647.25 398.332,647.618 403.537,648.631 C406.796,649.265 405.362,653.122 408.264,655.583" fill="#FBFAFA"/>
    <path d="M390.403,722.217 C394.315,723.759 398.237,725.276 402.132,726.859 C403.163,727.278 404.513,727.719 403.582,729.3 C402.934,730.402 402.349,731.734 400.56,730.87 C396.48,728.898 392.722,726.554 390.403,722.217" fill="#FA6F60"/>
    <path d="M395.707,750.026 C395.46,750.633 395.953,752.872 393.456,752.01 C392.074,751.532 389.526,751.726 390.297,749.23 C390.751,747.76 390.904,745.196 393.322,745.42 C395.4,745.614 396.483,747.138 395.707,750.026" fill="#FA6F60"/>
    <path d="M474.136,685.589 C473.438,685.941 472.74,686.292 472.042,686.643 C471.29,686.328 470.127,685.575 470.665,685.09 C471.684,684.171 473.077,684.635 474.136,685.589" fill="#DF664D"/>
    <path d="M344.051,405.985 C344.113,415.927 341.618,422.353 337.368,428.085 C328.107,440.579 312.326,439.457 305.351,425.506 C299.394,413.591 300.586,401.323 305.811,389.429 C307.117,386.455 307.431,384.233 305.692,381.314 C302.838,376.524 301.9,371.113 302.001,365.52 C302.069,361.722 303.91,359.483 307.647,359.299 C311.4,359.115 313.634,361.285 313.911,364.954 C314.15,368.122 314.48,371.224 315.531,374.231 C316.145,375.989 316.834,376.879 319.15,376.237 C324.519,374.746 328.967,377.076 332.623,380.795 C340.194,388.497 343.563,398.003 344.051,405.985" fill="#6E4100"/>
    <path d="M537.616,406.683 C537.886,399.931 539.333,393.484 542.638,387.586 C543.721,385.652 543.18,384.331 542.24,382.648 C539.269,377.331 537.816,371.604 537.971,365.47 C538.068,361.667 539.931,359.455 543.667,359.299 C547.425,359.143 549.468,361.345 549.931,365.001 C550.139,366.646 550.039,368.342 550.366,369.957 C551.152,373.838 551.497,377.813 557.662,375.962 C561.001,374.96 564.379,377.216 567.173,379.471 C580.886,390.536 583.971,413.559 573.643,427.753 C564.203,440.727 548.316,439.403 541.008,425.05 C538.053,419.247 537.541,413.018 537.616,406.683" fill="#6E4100"/>
    <path d="M442.977,563.679 C426.459,562.436 411.69,556.464 399.629,544.438 C395.689,540.51 395.47,536.373 398.616,533.534 C401.634,530.813 405.067,531.592 409.01,535.242 C429.602,554.301 455.659,556.903 476.264,534.308 C479.199,531.089 483.069,530.507 485.927,532.878 C488.964,535.397 489.151,539.472 486.065,543.003 C474.766,555.933 460.465,562.717 442.977,563.679" fill="#6E4100"/>
    <path d="M325.492,218.843 C334.129,219.005 340.517,222.031 345.605,227.847 C348.253,230.875 349.009,234.235 345.83,237.111 C342.735,239.91 339.376,239.365 336.718,236.083 C328.91,226.446 315.182,231.597 311.148,240.451 C309.288,244.535 306.961,246.953 302.399,245.316 C298.618,243.96 297.745,239.911 300.251,235.072 C305.713,224.528 314.665,219.444 325.492,218.843" fill="#6E4100"/>
    <path d="M438.285,408.73 C440.602,408.59 442.586,409.438 443.921,411.25 C445.875,413.903 447.826,416.609 449.347,419.518 C451.079,422.832 450.386,426.087 447.324,428.31 C444.063,430.678 440.608,430.329 438.009,427.265 C435.782,424.64 433.743,421.733 432.233,418.65 C429.938,413.961 433.225,408.877 438.285,408.73" fill="#6E4300"/>
  </g>
</svg>
